<svg width="461" height="24" viewBox="0 0 461 24" fill="none" xmlns="http://www.w3.org/2000/svg">
<path fill-rule="evenodd" clip-rule="evenodd" d="M21.4643 6.32756C11.0247 6.97355 4.80534 7.55494 3.8058 8.20094C1.36248 9.62213 6.24911 10.3327 21.6864 10.3973C21.7975 10.3973 422.613 5.10015 422.724 5.10015C440.827 4.64795 442.27 4.06657 442.27 2.96838C442.27 1.54719 437.384 0.578199 426.944 0.126003C413.173 -0.584592 98.651 1.74099 21.4643 6.32756ZM429.498 9.55753C424.612 9.68673 106.536 13.9503 98.5399 14.3379C0.585049 18.5369 -6.96701 19.1828 3.58368 22.2836C8.69244 23.7694 18.3547 23.7694 60.2242 22.0898C161.178 18.1493 448.601 17.6971 458.707 15.5653C463.372 14.5317 464.038 8.84694 429.498 9.55753Z" fill="#2C9BD8"/>
</svg>
