<svg width="24" height="24" viewBox="0 0 24 24" fill="none" xmlns="http://www.w3.org/2000/svg">
<path d="M13.59 11.9993L18.0431 7.54614C18.2544 7.33517 18.3733 7.04888 18.3736 6.75026C18.3738 6.45164 18.2555 6.16514 18.0445 5.9538C17.8335 5.74245 17.5472 5.62357 17.2486 5.62331C16.95 5.62305 16.6635 5.74142 16.4521 5.95239L11.999 10.4055L7.5459 5.95239C7.33455 5.74105 7.04791 5.62231 6.74902 5.62231C6.45014 5.62231 6.16349 5.74105 5.95215 5.95239C5.7408 6.16374 5.62207 6.45038 5.62207 6.74927C5.62207 7.04815 5.7408 7.3348 5.95215 7.54614L10.4053 11.9993L5.95215 16.4524C5.7408 16.6637 5.62207 16.9504 5.62207 17.2493C5.62207 17.5482 5.7408 17.8348 5.95215 18.0461C6.16349 18.2575 6.45014 18.3762 6.74902 18.3762C7.04791 18.3762 7.33455 18.2575 7.5459 18.0461L11.999 13.593L16.4521 18.0461C16.6635 18.2575 16.9501 18.3762 17.249 18.3762C17.5479 18.3762 17.8346 18.2575 18.0459 18.0461C18.2572 17.8348 18.376 17.5482 18.376 17.2493C18.376 16.9504 18.2572 16.6637 18.0459 16.4524L13.59 11.9993Z" fill="#2A3A45"/>
</svg>
